<?xml version="1.0" encoding="UTF-8" standalone="no"?>
<!DOCTYPE svg PUBLIC "-//W3C//DTD SVG 1.1//EN"
 "http://www.w3.org/Graphics/SVG/1.1/DTD/svg11.dtd">
<!-- Generated by graphviz version 5.0.0 (20220707.1540)
 -->
<!-- Title: dependencies Pages: 1 -->
<svg width="258pt" height="174pt"
 viewBox="0.00 0.00 258.00 173.80" xmlns="http://www.w3.org/2000/svg" xmlns:xlink="http://www.w3.org/1999/xlink">
<g id="graph0" class="graph" transform="scale(1 1) rotate(0) translate(4 169.8)">
<title>dependencies</title>
<polygon fill="white" stroke="transparent" points="-4,4 -4,-169.8 254,-169.8 254,4 -4,4"/>
<text text-anchor="middle" x="125" y="-8.2" font-family="sans-serif" font-size="14.00">dependencies</text>
<g id="clust1" class="cluster">
<title>cluster_StackApiModule</title>
<polygon fill="none" stroke="black" stroke-dasharray="1,5" points="8,-32.8 8,-157.8 242,-157.8 242,-32.8 8,-32.8"/>
</g>
<g id="clust6" class="cluster">
<title>cluster_StackApiModule_providers</title>
<polygon fill="none" stroke="black" points="16,-40.8 16,-92.8 234,-92.8 234,-40.8 16,-40.8"/>
</g>
<!-- IsValueExistConstraint -->
<g id="node1" class="node">
<title>IsValueExistConstraint</title>
<ellipse fill="#fdb462" stroke="black" cx="125" cy="-66.8" rx="101.31" ry="18"/>
<text text-anchor="middle" x="125" y="-62.6" font-family="Times,serif" font-size="14.00">IsValueExistConstraint</text>
</g>
<!-- StackApiModule -->
<g id="node2" class="node">
<title>StackApiModule</title>
<polygon fill="#8dd3c7" stroke="black" points="180.66,-149.8 177.66,-153.8 156.66,-153.8 153.66,-149.8 69.34,-149.8 69.34,-113.8 180.66,-113.8 180.66,-149.8"/>
<text text-anchor="middle" x="125" y="-127.6" font-family="Times,serif" font-size="14.00">StackApiModule</text>
</g>
<!-- IsValueExistConstraint&#45;&gt;StackApiModule -->
<g id="edge1" class="edge">
<title>IsValueExistConstraint&#45;&gt;StackApiModule</title>
<path fill="none" stroke="black" d="M125,-84.91C125,-84.91 125,-103.79 125,-103.79"/>
<polygon fill="black" stroke="black" points="121.5,-103.79 125,-113.79 128.5,-103.79 121.5,-103.79"/>
</g>
</g>
</svg>
