<?xml version="1.0" encoding="UTF-8" standalone="no"?>
<!DOCTYPE svg PUBLIC "-//W3C//DTD SVG 1.1//EN"
 "http://www.w3.org/Graphics/SVG/1.1/DTD/svg11.dtd">
<!-- Generated by graphviz version 5.0.0 (20220707.1540)
 -->
<!-- Title: dependencies Pages: 1 -->
<svg width="306pt" height="174pt"
 viewBox="0.00 0.00 306.00 173.80" xmlns="http://www.w3.org/2000/svg" xmlns:xlink="http://www.w3.org/1999/xlink">
<g id="graph0" class="graph" transform="scale(1 1) rotate(0) translate(4 169.8)">
<title>dependencies</title>
<polygon fill="white" stroke="transparent" points="-4,4 -4,-169.8 302,-169.8 302,4 -4,4"/>
<text text-anchor="middle" x="149" y="-8.2" font-family="sans-serif" font-size="14.00">dependencies</text>
<g id="clust1" class="cluster">
<title>cluster_AppModule</title>
<polygon fill="none" stroke="black" stroke-dasharray="1,5" points="8,-32.8 8,-157.8 290,-157.8 290,-32.8 8,-32.8"/>
</g>
<g id="clust3" class="cluster">
<title>cluster_AppModule_imports</title>
<polygon fill="none" stroke="black" points="154,-40.8 154,-92.8 282,-92.8 282,-40.8 154,-40.8"/>
</g>
<g id="clust6" class="cluster">
<title>cluster_AppModule_providers</title>
<polygon fill="none" stroke="black" points="16,-40.8 16,-92.8 146,-92.8 146,-40.8 16,-40.8"/>
</g>
<!-- StackApiModule -->
<g id="node1" class="node">
<title>StackApiModule</title>
<polygon fill="#8dd3c7" stroke="black" points="273.66,-84.8 270.66,-88.8 249.66,-88.8 246.66,-84.8 162.34,-84.8 162.34,-48.8 273.66,-48.8 273.66,-84.8"/>
<text text-anchor="middle" x="218" y="-62.6" font-family="Times,serif" font-size="14.00">StackApiModule</text>
</g>
<!-- AppModule -->
<g id="node2" class="node">
<title>AppModule</title>
<polygon fill="#8dd3c7" stroke="black" points="190.66,-149.8 187.66,-153.8 166.66,-153.8 163.66,-149.8 107.34,-149.8 107.34,-113.8 190.66,-113.8 190.66,-149.8"/>
<text text-anchor="middle" x="149" y="-127.6" font-family="Times,serif" font-size="14.00">AppModule</text>
</g>
<!-- StackApiModule&#45;&gt;AppModule -->
<g id="edge1" class="edge">
<title>StackApiModule&#45;&gt;AppModule</title>
<path fill="none" stroke="black" d="M176.5,-84.91C176.5,-84.91 176.5,-103.79 176.5,-103.79"/>
<polygon fill="black" stroke="black" points="173,-103.79 176.5,-113.79 180,-103.79 173,-103.79"/>
</g>
<!-- AppService -->
<g id="node3" class="node">
<title>AppService</title>
<ellipse fill="#fdb462" stroke="black" cx="81" cy="-66.8" rx="56.75" ry="18"/>
<text text-anchor="middle" x="81" y="-62.6" font-family="Times,serif" font-size="14.00">AppService</text>
</g>
<!-- AppService&#45;&gt;AppModule -->
<g id="edge2" class="edge">
<title>AppService&#45;&gt;AppModule</title>
<path fill="none" stroke="black" d="M122.4,-79.33C122.4,-79.33 122.4,-103.65 122.4,-103.65"/>
<polygon fill="black" stroke="black" points="118.9,-103.65 122.4,-113.65 125.9,-103.65 118.9,-103.65"/>
</g>
</g>
</svg>
