<?xml version="1.0" encoding="UTF-8" standalone="no"?>
<!DOCTYPE svg PUBLIC "-//W3C//DTD SVG 1.1//EN"
 "http://www.w3.org/Graphics/SVG/1.1/DTD/svg11.dtd">
<!-- Generated by graphviz version 5.0.0 (20220707.1540)
 -->
<!-- Title: dependencies Pages: 1 -->
<svg width="351pt" height="250pt"
 viewBox="0.00 0.00 351.00 249.80" xmlns="http://www.w3.org/2000/svg" xmlns:xlink="http://www.w3.org/1999/xlink">
<g id="graph0" class="graph" transform="scale(1 1) rotate(0) translate(4 245.8)">
<title>dependencies</title>
<polygon fill="white" stroke="transparent" points="-4,4 -4,-245.8 347,-245.8 347,4 -4,4"/>
<text text-anchor="middle" x="171.5" y="-8.2" font-family="sans-serif" font-size="14.00">dependencies</text>
<g id="clust1" class="cluster">
<title>cluster_AppModule</title>
<polygon fill="none" stroke="black" stroke-dasharray="1,5" points="8,-108.8 8,-233.8 290,-233.8 290,-108.8 8,-108.8"/>
</g>
<g id="clust3" class="cluster">
<title>cluster_AppModule_imports</title>
<polygon fill="none" stroke="black" points="154,-116.8 154,-168.8 282,-168.8 282,-116.8 154,-116.8"/>
</g>
<g id="clust6" class="cluster">
<title>cluster_AppModule_providers</title>
<polygon fill="none" stroke="black" points="16,-116.8 16,-168.8 146,-168.8 146,-116.8 16,-116.8"/>
</g>
<g id="clust7" class="cluster">
<title>cluster_StackApiModule</title>
<polygon fill="none" stroke="black" stroke-dasharray="1,5" points="101,-32.8 101,-100.8 335,-100.8 335,-32.8 101,-32.8"/>
</g>
<g id="clust12" class="cluster">
<title>cluster_StackApiModule_providers</title>
<polygon fill="none" stroke="black" points="109,-40.8 109,-92.8 327,-92.8 327,-40.8 109,-40.8"/>
</g>
<!-- StackApiModule -->
<g id="node1" class="node">
<title>StackApiModule</title>
<polygon fill="#8dd3c7" stroke="black" points="273.66,-160.8 270.66,-164.8 249.66,-164.8 246.66,-160.8 162.34,-160.8 162.34,-124.8 273.66,-124.8 273.66,-160.8"/>
<text text-anchor="middle" x="218" y="-138.6" font-family="Times,serif" font-size="14.00">StackApiModule</text>
</g>
<!-- AppModule -->
<g id="node2" class="node">
<title>AppModule</title>
<polygon fill="#8dd3c7" stroke="black" points="190.66,-225.8 187.66,-229.8 166.66,-229.8 163.66,-225.8 107.34,-225.8 107.34,-189.8 190.66,-189.8 190.66,-225.8"/>
<text text-anchor="middle" x="149" y="-203.6" font-family="Times,serif" font-size="14.00">AppModule</text>
</g>
<!-- StackApiModule&#45;&gt;AppModule -->
<g id="edge1" class="edge">
<title>StackApiModule&#45;&gt;AppModule</title>
<path fill="none" stroke="black" d="M176.5,-160.91C176.5,-160.91 176.5,-179.79 176.5,-179.79"/>
<polygon fill="black" stroke="black" points="173,-179.79 176.5,-189.79 180,-179.79 173,-179.79"/>
</g>
<!-- AppService -->
<g id="node3" class="node">
<title>AppService</title>
<ellipse fill="#fdb462" stroke="black" cx="81" cy="-142.8" rx="56.75" ry="18"/>
<text text-anchor="middle" x="81" y="-138.6" font-family="Times,serif" font-size="14.00">AppService</text>
</g>
<!-- AppService&#45;&gt;AppModule -->
<g id="edge2" class="edge">
<title>AppService&#45;&gt;AppModule</title>
<path fill="none" stroke="black" d="M122.4,-155.33C122.4,-155.33 122.4,-179.65 122.4,-179.65"/>
<polygon fill="black" stroke="black" points="118.9,-179.65 122.4,-189.65 125.9,-179.65 118.9,-179.65"/>
</g>
<!-- IsValueExistConstraint -->
<g id="node4" class="node">
<title>IsValueExistConstraint</title>
<ellipse fill="#fdb462" stroke="black" cx="218" cy="-66.8" rx="101.31" ry="18"/>
<text text-anchor="middle" x="218" y="-62.6" font-family="Times,serif" font-size="14.00">IsValueExistConstraint</text>
</g>
<!-- IsValueExistConstraint&#45;&gt;StackApiModule -->
<g id="edge3" class="edge">
<title>IsValueExistConstraint&#45;&gt;StackApiModule</title>
<path fill="none" stroke="black" d="M218,-84.81C218,-84.81 218,-114.65 218,-114.65"/>
<polygon fill="black" stroke="black" points="214.5,-114.65 218,-124.65 221.5,-114.65 214.5,-114.65"/>
</g>
</g>
</svg>
